<?xml version="1.0"?><svg xmlns="http://www.w3.org/2000/svg"  viewBox="0 0 50 50" width="100px" height="100px">    <path d="M41.296,41.213C45.437,37.052,48,31.32,48,25C48,12.318,37.682,2,25,2S2,12.318,2,25s10.318,23,23,23 c6.32,0,12.052-2.563,16.213-6.704c0.015-0.014,0.035-0.018,0.05-0.033S41.283,41.229,41.296,41.213z M46,25 c0,5.43-2.09,10.37-5.484,14.102l-5.654-5.654C36.813,31.173,38,28.225,38,25c0-6.831-5.299-12.436-12-12.949v-8 C37.114,4.578,46,13.758,46,25z M25,14c6.065,0,11,4.935,11,11s-4.935,11-11,11s-11-4.935-11-11S18.935,14,25,14z"/></svg>